<svg id="iconfinder_808669_bar_code_barcode_finance_product_scan_scan_icon" data-name="iconfinder_808669_bar code_barcode_finance_product scan_scan_icon" xmlns="http://www.w3.org/2000/svg" width="24" height="24" viewBox="0 0 24 24">
  <path id="Path_24" data-name="Path 24" d="M23,0H1A.945.945,0,0,0,0,1V23a.945.945,0,0,0,1,1H23a.945.945,0,0,0,1-1V1A.945.945,0,0,0,23,0ZM22,22H2V2H22Z" fill="#010101"/>
  <rect id="Rectangle_5" data-name="Rectangle 5" width="2" height="13" transform="translate(4 4)" fill="#010101"/>
  <rect id="Rectangle_6" data-name="Rectangle 6" width="1" height="13" transform="translate(7 4)" fill="#010101"/>
  <rect id="Rectangle_7" data-name="Rectangle 7" width="1" height="13" transform="translate(9 4)" fill="#010101"/>
  <rect id="Rectangle_8" data-name="Rectangle 8" width="1" height="13" transform="translate(14 4)" fill="#010101"/>
  <rect id="Rectangle_9" data-name="Rectangle 9" width="1" height="13" transform="translate(16 4)" fill="#010101"/>
  <rect id="Rectangle_10" data-name="Rectangle 10" width="2" height="13" transform="translate(18 4)" fill="#010101"/>
  <rect id="Rectangle_11" data-name="Rectangle 11" width="2" height="13" transform="translate(11 4)" fill="#010101"/>
  <rect id="Rectangle_12" data-name="Rectangle 12" width="2" height="2" transform="translate(4 18)" fill="#010101"/>
  <rect id="Rectangle_13" data-name="Rectangle 13" width="2" height="2" transform="translate(14 18)" fill="#010101"/>
  <rect id="Rectangle_14" data-name="Rectangle 14" width="1" height="2" transform="translate(7 18)" fill="#010101"/>
  <rect id="Rectangle_15" data-name="Rectangle 15" width="1" height="2" transform="translate(17 18)" fill="#010101"/>
  <rect id="Rectangle_16" data-name="Rectangle 16" width="1" height="2" transform="translate(19 18)" fill="#010101"/>
  <rect id="Rectangle_17" data-name="Rectangle 17" width="4" height="2" transform="translate(9 18)" fill="#010101"/>
</svg>
